<?xml version="1.0" encoding="UTF-8"?>
<svg xmlns="http://www.w3.org/2000/svg" version="1.1" viewBox="0 0 650 100">
  <defs>
    <style>
      .cls-1 {
        fill: #231f20;
      }

      .cls-2 {
        fill: #f27321;
      }
    </style>
  </defs>
  <!-- Generator: Adobe Illustrator 28.7.3, SVG Export Plug-In . SVG Version: 1.2.0 Build 164)  -->
  <g>
    <g id="Layer_1">
      <g>
        <polygon class="cls-1" points="96.7 18 96.7 93 152.5 93 152.5 79.6 111.5 79.6 111.5 61.6 145.4 61.6 145.4 48.7 111.5 48.7 111.5 32.1 152.5 32.1 152.5 17.9 96.7 18"/>
        <polygon class="cls-1" points="301.8 18.3 316.6 18.2 316.6 93 301.8 93 301.8 18.3"/>
        <polygon class="cls-1" points="397.8 18.6 412.6 18.5 412.6 93 397.8 93 397.8 18.6"/>
        <polygon class="cls-1" points="253.5 32.1 253.5 93 268.5 93 268.5 32.1 290.7 32.1 290.7 17.7 231.9 17.6 231.9 32.1 253.5 32.1"/>
        <polygon class="cls-1" points="346.3 92.8 331.5 92.8 331.5 17.9 387.3 17.7 387.3 32 346.3 32 346.3 48.6 379 48.6 379 61.5 346.3 61.5 346.3 92.8"/>
        <path class="cls-1" d="M201.2,18.1c22.8,0,23.5,24.4,23.5,24.4,0,19.4-16,23.6-16,23.6l17.8,26.9h-18.2l-15.8-25.5h-12.3v25.5h-15.6V18.2h36.6ZM180.2,32.1v21.6h19.6s8.9.2,8.9-10.8c0,0,1.3-10.8-10.1-10.8h-18.4Z"/>
        <path class="cls-1" d="M86.1,65.9c-4.9,16.7-20.5,29.2-39,29.2S6.6,77.1,6.6,55,24.7,14.9,47.1,14.9s34.6,12.8,39.2,30h-16.1c-3.9-9.1-13-15.5-23.5-15.5s-25.6,11.5-25.6,25.6,11.5,25.6,25.6,25.6,19.1-6,23.2-14.7h16.2Z"/>
        <g>
          <polygon class="cls-2" points="606.2 32.6 606.2 93.4 621.2 93.4 621.2 32.6 643.4 32.6 643.4 18.2 584.6 18 584.6 32.6 606.2 32.6"/>
          <path class="cls-2" d="M502.3,66.6c-4.9,16.7-20.5,29.2-39,29.2s-40.6-17.9-40.6-40.1,6.7-25.3,17-32.6,2-6.8,23.6-6.8,16.8,2.1,23.4,6.8c7.6,5.4,13.3,13.4,15.8,22.6h-16.1c-3.9-9.1-13-15.5-23.5-15.5s-25.6,11.5-25.6,25.6,11.5,25.6,25.6,25.6,19.1-6,23.2-14.7h16.2Z"/>
          <polygon class="cls-2" points="435.4 4.2 429.1 34.8 454.7 20.1 435.4 4.2"/>
          <polygon class="cls-2" points="490.8 4.2 497.1 34.9 471.5 20.1 490.8 4.2"/>
          <path class="cls-2" d="M576.6,46.1v47.3h-14.1v-22.7h-36.4v22.2h-13.7v-48.1s.8-28,32.1-28,32.1,28,32.1,28v1.2ZM563,57.9v-9.4c0-18.5-18.5-18.5-18.5-18.5,0,0-18.5,0-18.5,18.5v9.4h37.1Z"/>
        </g>
      </g>
    </g>
  </g>
</svg>