<?xml version="1.0" encoding="UTF-8"?>
<svg id="Layer_1" data-name="Layer 1" xmlns="http://www.w3.org/2000/svg" viewBox="0 0 650 100">
  <defs>
    <style>
      .cls-1, .cls-2 {
        stroke-width: 0px;
      }

      .cls-2 {
        fill: #f76902;
      }
    </style>
  </defs>
  <polygon class="cls-1" points="96.92 17.58 96.92 92.5 152.64 92.5 152.64 79.17 111.66 79.17 111.66 61.21 145.58 61.21 145.58 48.3 111.66 48.3 111.66 31.73 152.64 31.73 152.64 17.48 96.92 17.58"/>
  <polygon class="cls-1" points="301.83 17.92 316.57 17.77 316.57 92.5 301.83 92.5 301.83 17.92"/>
  <polygon class="cls-1" points="397.78 18.2 412.52 18.06 412.52 92.5 397.78 92.5 397.78 18.2"/>
  <polygon class="cls-1" points="253.58 31.73 253.58 92.5 268.52 92.5 268.52 31.73 290.73 31.73 290.73 17.34 231.98 17.19 231.98 31.73 253.58 31.73"/>
  <polygon class="cls-1" points="346.25 92.35 331.51 92.35 331.51 17.48 387.23 17.34 387.23 31.59 346.25 31.59 346.25 48.16 378.95 48.16 378.95 61.06 346.25 61.06 346.25 92.35"/>
  <path class="cls-1" d="M201.28,17.68c22.8,0,23.43,24.35,23.43,24.35,0,19.38-15.95,23.62-15.95,23.62l17.77,26.85h-18.17l-15.75-25.44h-12.31v25.44h-15.54V17.77l36.53-.1ZM180.3,31.73v21.6h19.58s8.88.2,8.88-10.8c0,0,1.31-10.8-10.04-10.8h-18.42Z"/>
  <path class="cls-1" d="M86.33,65.42c-4.87,16.71-20.46,29.17-38.93,29.17-22.38,0-40.51-17.93-40.51-40.04S25.02,14.5,47.4,14.5c18.79,0,34.59,12.82,39.17,29.97h-16.07c-3.92-9.1-12.96-15.47-23.5-15.47-14.12,0-25.57,11.45-25.57,25.57s11.45,25.57,25.57,25.57c10.24,0,19.08-6.02,23.16-14.72h16.17Z"/>
  <g>
    <polygon class="cls-2" points="605.97 32.16 605.97 92.93 620.91 92.93 620.91 32.16 643.12 32.16 643.12 17.77 584.37 17.63 584.37 32.16 605.97 32.16"/>
    <path class="cls-2" d="M502.14,66.16c-4.87,16.71-20.46,29.17-38.93,29.17-22.38,0-40.51-17.93-40.51-40.04s18.14-40.04,40.51-40.04c18.79,0,34.59,12.82,39.17,29.97h-16.07c-3.92-9.1-12.96-15.47-23.5-15.47-14.12,0-25.57,11.45-25.57,25.57s11.45,25.57,25.57,25.57c10.24,0,19.08-6.02,23.16-14.72h16.17Z"/>
    <polygon class="cls-2" points="429.42 4.68 429.42 35.36 453.85 18.81 429.42 4.68"/>
    <polygon class="cls-2" points="497.26 4.68 497.26 35.36 472.83 18.81 497.26 4.68"/>
    <path class="cls-2" d="M576.39,45.66v47.27h-14.13v-22.64h-36.34v22.21h-13.73v-48.05s.81-28,32.1-28,32.1,28,32.1,28v1.21ZM562.82,57.47v-9.44c0-18.52-18.52-18.52-18.52-18.52,0,0-18.52,0-18.52,18.52v9.44h37.05Z"/>
  </g>
</svg>